<?xml version="1.0" encoding="UTF-8"?><svg id="Layer_1" xmlns="http://www.w3.org/2000/svg" viewBox="0 0 137.12 301.53"><defs><style>.cls-1{fill:#fed900;}.cls-2{fill:#fffeff;}.cls-3{fill:#636362;}</style></defs><path class="cls-1" d="m137.04,127.94c0,21.58,0,43.16,0,64.73,0,.96.06,1.91.08,2.87.02.83-.36,1.17-1.22,1.17-44.2-.02-88.39-.01-132.59-.04-3.91,0-3.26.39-3.26-3.21,0-43.91,0-87.81,0-131.72,0-2.31-.58-2.25,2.25-2.25,44.36,0,88.73,0,133.09,0,1.72,0,1.68,0,1.67,1.72-.02,17.91-.02,35.82-.02,53.74,0,4.33,0,8.66,0,13Zm-116.32-2.66s.05,0,.08,0c0,12.7-.07,25.41.05,38.11.03,2.87.76,5.71,1.96,8.41,1.36,3.05,3.81,4.77,6.73,5.83,2.33.84,4.83,1.15,7.34,1.14,4.12-.02,8.25.06,12.37-.03,2.84-.06,5.66-.33,8.37-1.34,3.16-1.18,5.44-3.41,6.54-6.43,1.37-3.73,1.56-7.76,1.56-11.73.03-24.37.02-48.74.02-73.11,0-.37-.06-.74-.09-1.11-.06-.75-.44-.99-1.21-.98-5.12.04-10.25.04-15.37.03-.85,0-1.24.28-1.17,1.16.06.79.07,1.58.07,2.37,0,21.95,0,43.91,0,65.86,0,1.37-.12,2.75-.13,4.12,0,1.72-.7,2.93-2.38,3.52-.82.29-1.65.14-2.47.15-1.79.03-2.91-.91-3.33-2.65-.19-.78-.15-1.57-.15-2.36,0-23.54-.01-47.07.02-70.61,0-1.17-.27-1.62-1.53-1.58-3.08.1-6.16.04-9.25.05-2.25,0-4.5-.03-6.75,0-1.3.01-1.55.34-1.44,1.58.06.62.12,1.24.12,1.86,0,12.58,0,25.16,0,37.74Zm51.53,5.97h0c0,15.16,0,30.33-.02,45.49,0,1.08.37,1.48,1.43,1.48,5.21-.02,10.41,0,15.62,0,1.76,0,1.75,0,1.75-1.78-.02-9.71-.03-19.41-.07-29.12,0-.93.33-1.27,1.24-1.25,2.17.05,4.33.05,6.5.05,3.15,0,6.28.03,9.38-.82,4.22-1.15,7.11-3.58,8.5-7.8,1.09-3.32,1.34-6.75,1.38-10.17.1-8.29.08-16.58,0-24.87-.02-2.81-.24-5.64-.97-8.39-1.16-4.39-3.53-7.69-8.13-8.94-2.74-.75-5.54-1.01-8.37-1.01-8.83,0-17.66,0-26.49,0-1.62,0-1.78.11-1.78,1.53,0,15.21,0,30.41,0,45.62Z"/><path class="cls-3" d="m82,25.69c0-8.12.01-16.24-.02-24.36,0-.99.25-1.25,1.28-1.22,4,.09,7.99.05,11.99.08,1.66.01,3.34-.01,4.99.16,4.36.45,6.08,3.1,6.59,7.37.29,2.47.31,4.96.33,7.41.02,2.64-.1,5.43-1.33,7.94-.47.97-1.19,1.78-2.2,2.11-1.32.44-.74.92-.06,1.26,1.76.89,2.53,2.48,2.93,4.24.32,1.39.48,2.85.51,4.28.08,3.29-.05,6.58.07,9.87.07,1.86.26,3.75.98,5.51.37.9.01,1.06-.84,1.04-2.46-.06-4.91-.06-7.37-.04-2.23.02-2.81-.51-2.84-2.79-.07-4.83-.14-9.66-.18-14.49-.02-2.63-.91-3.51-3.52-3.54-.93-.01-1.08.35-1.08,1.17.03,5.37.02,10.75.02,16.12,0,.83-.03,1.67.03,2.5.05.73-.18,1.08-.97,1.08-2.79-.03-5.58-.05-8.37,0-.96.02-.96-.5-.95-1.19,0-8.16,0-16.33,0-24.49Zm10.27-10.3c0,1.04,0,2.08,0,3.12-.03,2.8.05,2.87,2.89,2.47.12-.02.25-.03.37-.07.73-.2,1.15-.54,1.27-1.42.28-2.07,0-4.13.03-6.19.06-3.31-.37-3.66-3.7-3.51-.65.03-.87.23-.86.87.03,1.58.01,3.16,0,4.74Z"/><path class="cls-3" d="m20.69.02c2.11.09,4.22-.1,6.34.19,2.95.41,4.87,2.9,5.25,5.77.44,3.33.54,6.68.55,10.04,0,1.19-.52,1.46-1.53,1.55-1.05.09-2.03-.3-3.07-.29-1.24.02-2.47.04-3.7.27-1.15.22-1.53-.24-1.44-1.43.13-1.68.34-3.39-.08-5.07-.35-1.42-1.19-1.81-3.25-1.49-1.13.17-1.02,1.16-1.08,1.95-.06.83.03,1.67,0,2.5-.05,1.75.62,3.17,1.79,4.45,1.64,1.8,3.58,3.23,5.43,4.79,2.17,1.83,4.15,3.81,5.37,6.43.72,1.54,1.1,3.16,1.3,4.86.28,2.53.23,5.06.2,7.58-.03,2.02-.41,4.01-1.23,5.88-1.05,2.4-3.09,3.3-5.51,3.53-3.3.32-6.61.2-9.92.13-4.58-.09-6.69-2.58-7.33-6.68-.6-3.81-.13-7.63-.31-11.44-.04-.72.31-.8.9-.8,2.62.03,5.25.04,7.87.02.69,0,.84.27.83.88-.03,2.08-.04,4.16-.03,6.25,0,1.63.62,2.34,2.01,2.38,1.61.04,2.43-.72,2.48-2.36.03-.96-.01-1.91,0-2.87.06-2.92-1.5-4.84-3.66-6.62-2.9-2.4-5.87-4.79-8.11-7.85-1.69-2.31-2.41-5.04-2.3-7.96.08-2.12-.02-4.25.08-6.37.09-2,.37-3.98,1.59-5.67C11.45.74,13.34.12,15.44.03c1.75-.07,3.5-.01,5.25-.01Z"/><path class="cls-3" d="m65.87.12c2.47.12,4.72-.11,6.96.12.67.07.93.26.98.96.32,4.08.9,8.13,1.44,12.19.3,2.25.49,4.52.83,6.77.16,1.09.35,2.21.56,3.3.14.73.06,1.57.12,2.36.1,1.35.46,2.67.59,3.99.14,1.49.62,2.94.47,4.47-.08.8.1,1.64.24,2.45.48,2.82.73,5.67,1.01,8.52.14,1.46.21,2.93.64,4.36.43,1.43.15,1.73-1.31,1.72-2.54-.01-5.08-.02-7.62.02-.86.02-1.27-.16-1.25-1.15.03-1.57-.62-3.09-.49-4.68.04-.51-.23-.76-.76-.75-1.46.01-2.92,0-4.37,0-1.12,0-1.09.95-1.07,1.6.05,1.34-.37,2.63-.29,3.96.04.76-.34,1.04-1.06,1.04-2.5-.02-5-.04-7.49-.02-.69,0-.92-.25-.77-.9.76-3.23.84-6.56,1.24-9.84.39-3.19,1.07-6.36,1.1-9.6.01-1.41.46-2.82.65-4.24.14-1.03.34-2.04.33-3.1-.01-2.3.68-4.53.84-6.82.17-2.36.6-4.7.92-7.05.36-2.59.35-5.21.94-7.78.45-1.94.4-1.94,2.48-1.92,1.46.02,2.92,0,4.14,0Zm.18,9.6c-.43,1.28-.4,2.61-.47,3.93-.22,3.74-.68,7.47-.76,11.23-.05,2.56-.38,5.11-.78,7.63-.43,2.71-.19,3.05,2.54,3.01.29,0,.59.01.87-.03.39-.05.65-.35.52-.7-.43-1.12-.07-2.3-.31-3.44-.68-3.16-.67-6.39-.82-9.59-.19-4.02-.8-8-.78-12.05Z"/><path class="cls-3" d="m118.05,228.9c0,4.87,0,9.16,0,13.45,0,1.73-.14,3.46-.67,5.12-.73,2.28-3.24,4.01-5.67,3.98-2.9-.04-5.81,0-8.71.03-2.51.03-5.15-1.98-5.73-4.44-.32-1.37-.51-2.76-.51-4.18.03-8.83.02-17.66.02-26.49,0-1.08.05-2.16.2-3.24.43-3.1,1.76-4.9,4.78-5.45,3.82-.69,7.72-.75,11.54.04,2.83.58,4.31,2.78,4.54,5.67.42,5.36.01,10.72.22,15.5Zm-8.78-.56h.12c0-3.54.01-7.08,0-10.62,0-1.88-.66-2.38-2.44-2.21-1.41.13-1.48,1-1.47,2.08.02,6.54.02,13.08,0,19.62,0,1.49-.16,2.98-.17,4.46-.01,1.17.69,1.58,2.31,1.6,1.12.01,1.69-.33,1.68-1.58-.05-4.45-.02-8.91-.02-13.36Z"/><path class="cls-3" d="m94.03,229.41c0,5.04.03,10.07-.02,15.11-.01,1.48-.38,2.91-1.22,4.18-1.27,1.93-3.13,2.67-5.37,2.68-2.82.02-5.65.21-8.46.04-2.87-.17-5.54-1.72-5.95-5.92-.38-3.9-.16-7.82-.19-11.73-.04-5.87-.03-11.74,0-17.61,0-1.57.06-3.13.57-4.66.81-2.42,2.53-3.68,4.94-3.97,3.44-.4,6.9-.47,10.34,0,3.41.47,5.27,2.86,5.34,6.88.09,4.99.02,9.99.02,14.99Zm-8.55,0s0,0-.01,0c0-3.91.01-7.82,0-11.73,0-1.6-.57-2.21-1.88-2.19-1.62.03-2.09.51-2.05,2.2.08,3.69.22,7.39.13,11.06-.1,4.08.11,8.18-.34,12.25-.18,1.68.54,2.27,2.18,2.26,1.65,0,1.99-.4,1.99-2.25,0-3.87,0-7.74,0-11.61Z"/><path class="cls-3" d="m48.57,229.36c0-6.91.02-13.82-.02-20.73,0-.8.25-.99.97-.99,2.29.02,4.58,0,6.87-.03.71,0,.92.32.91,1-.02,3.96.03,7.91-.04,11.87-.01.89-.29,1.79-.21,2.7.07.82.37,1.35,1.37,1.33,2.95-.06,2.87.31,2.82-2.81-.07-4.33-.02-8.66-.09-12.99-.01-.94.33-1.1,1.17-1.07,2.12.06,4.25.09,6.37,0,1.06-.05,1.24.31,1.24,1.27-.04,13.16-.05,26.31-.05,39.47,0,2.78.02,2.77-2.77,2.76-1.62,0-3.25-.01-4.87.08-.83.05-1.1-.18-1.1-1.02.05-4.95.06-9.91.06-14.86,0-.74-.14-1.47-.18-2.21-.02-.43-.2-.59-.62-.58-.87,0-1.75.01-2.62-.02-.63-.02-.8.3-.74.85.55,5.01.14,10.04.22,15.06.04,2.76-.01,2.74-2.83,2.71-1.62-.02-3.25.01-4.87.06-.73.02-1.02-.19-1.02-.99.03-6.95.02-13.9.02-20.85h.01Z"/><path class="cls-3" d="m25.03,229.35c-.02-5.25-.22-10.49,0-15.74.14-3.33,2.25-5.72,5.57-6.11,2.86-.34,5.74-.36,8.6-.08,4.26.41,6.11,2.45,6.34,6.73.16,2.86.26,5.72.22,8.59-.02,1.59-.09,1.66-1.7,1.63-1.87-.03-3.75-.07-5.62-.01-.81.02-.97-.26-.95-1,.05-1.91.04-3.83.03-5.75,0-1.54-.56-2.12-1.95-2.11-1.48,0-2.03.59-2.03,2.19,0,7.25,0,14.49.03,21.74,0,.95-.42,1.88.05,2.87.37.77.87,1.03,1.67.98.74-.04,1.42.04,1.82-.89.31-.74.44-1.44.43-2.23-.03-2.21.02-4.42-.03-6.62-.02-.83.24-1.07,1.06-1.05,2.04.05,4.08.05,6.12-.01.93-.03,1.12.35,1.1,1.18-.1,3.49.16,6.98-.23,10.46-.12,1.12-.24,2.26-.56,3.32-.68,2.27-2.35,3.54-4.64,3.79-3.4.38-6.82.38-10.22-.02-2.9-.33-5.08-2.91-5.1-5.87-.03-5.33,0-10.66,0-15.99Z"/><path class="cls-3" d="m1.9,240.65c0-1.46.04-2.91-.02-4.37-.03-.78.28-1.03,1.02-1.02,1.96.02,3.91.02,5.87,0,.71-.01.95.2,1.08.97.29,1.7.08,3.39.16,5.07.03.65-.06,1.45.68,1.75.86.36,1.79.33,2.66-.07.41-.19.41-.59.47-.96.65-3.76-.33-6.84-3.49-9.22-2.4-1.81-4.87-3.63-6.47-6.28-1.08-1.78-1.84-3.66-1.87-5.81-.03-2.16-.03-4.33,0-6.49.02-.88.24-1.7.48-2.53.76-2.61,2.6-3.88,5.17-4.19,2.86-.35,5.74-.34,8.6-.07,4.29.4,5.75,2.54,6.02,6.4.17,2.44.36,4.88.3,7.33-.02.84-.19,1.18-1.1,1.15-2-.07-4-.09-5.99-.01-.99.04-1.21-.35-1.16-1.24.07-1.24.1-2.5.03-3.74-.08-1.44-.61-1.89-1.95-1.82-1.33.06-1.72.61-1.88,1.95-.38,3.19.95,5.51,3.33,7.49,2.55,2.12,5.3,4.04,7.05,6.99.52.88.99,1.82,1.07,2.76.18,2.05.72,4.07.56,6.14-.15,1.96-.25,3.93-.49,5.88-.29,2.31-2.33,4.25-4.84,4.53-3.36.38-6.75.41-10.09-.04-3.42-.46-4.66-2.87-5.06-6.18-.17-1.44-.03-2.91-.03-4.37-.04,0-.08,0-.12,0Z"/><path class="cls-3" d="m114.14,30.53c0-6.58-.02-13.16.02-19.74,0-.9-.25-1.17-1.15-1.09-1.07.1-2.17,0-3.24.09-.88.08-1.05-.28-1.03-1.05.04-2,.03-4,.03-6,0-.33.03-.67-.04-1-.32-1.54-.24-1.62,1.26-1.62,6.25.01,12.5.02,18.74-.02.84,0,1.08.26,1.07,1.07-.03,2.54,0,5.08,0,7.62,0,.7.04,1.32-1.07.97-.72-.23-1.57-.08-2.36-.08-1.95,0-1.99,0-2,2.01-.03,11.96-.03,23.91-.08,35.87,0,1.22.54,2.82-.31,3.58-.77.69-2.31.14-3.51.16-1.79.04-3.58-.02-5.37.06-.86.03-1.07-.29-1.06-1.09.02-6.58.01-13.16.01-19.74.03,0,.05,0,.08,0Z"/><path class="cls-3" d="m49.8,30.39c0,6.54-.03,13.07.02,19.61,0,1.12-.32,1.41-1.41,1.37-2.66-.09-5.33-.06-7.99-.03-.77.01-.96-.22-.96-.99.05-13.19.05-26.39.09-39.58,0-.72-.13-1.06-.94-1.02-1.12.05-2.25-.1-3.37-.01-.82.07-1.1-.24-1-.96.27-2.05-.61-4.07-.17-6.13.07-.34-.03-.74-.12-1.1-.26-1.04.06-1.46,1.11-1.44,6.28.14,12.57.13,18.85-.02.96-.02,1.24.3,1.22,1.21-.03,2.41-.02,4.83.02,7.24.02.98-.32,1.35-1.34,1.21-1.07-.14-2.16-.11-3.24-.17-.62-.04-.85.14-.84.84.04,6.66.02,13.32.02,19.98.02,0,.04,0,.05,0Z"/><path class="cls-3" d="m121,229.37c0-6.83.02-13.66-.02-20.49,0-1,.25-1.29,1.25-1.26,2.16.08,4.33.06,6.49.01.81-.02,1.07.23,1.07,1.06-.04,11.12-.05,22.23-.1,33.35,0,.81.25.99.98.96,1.41-.05,2.83.01,4.25-.05.79-.04,1.15.15,1.13,1.01-.04,2.08-.03,4.16,0,6.25,0,.75-.24,1-1.03.97-4.33-.18-8.66-.2-12.98.03-.96.05-1.06-.32-1.05-1.11.02-6.91.01-13.82.01-20.73h0Z"/><path class="cls-3" d="m79.96,284c0-3.87.02-7.74-.02-11.61,0-.7.17-.91.89-.92,2.32-.02,2.31-.05,2.3,2.2-.01,2.33.05,4.66-.04,6.99-.03.86.35,1.17,1.03,1.36.2.05.41.06.61.06,2.52.09,2.51.09,2.49-2.43-.02-2.41,0-4.83-.05-7.24-.02-.71.21-.96.92-.94.57.02,1.13.04,1.72-.1.73-.17.66.52.66.96.01,1.71-.03,3.41-.03,5.12,0,6.12,0,12.23.05,18.35,0,.92-.26,1.32-1.19,1.2-.33-.04-.67-.03-1,.01-.92.12-1.13-.34-1.12-1.17.05-3.12.01-6.24.09-9.36.02-.95-.18-1.31-1.21-1.34-2.89-.09-2.89-.14-2.88,2.7,0,2.58-.02,5.16.04,7.74.03,1.04-.21,1.5-1.37,1.46-1.88-.07-1.87,0-1.86-1.92,0-3.7,0-7.41,0-11.11-.01,0-.03,0-.04,0Z"/><path class="cls-3" d="m12.46,283.51c-.11-3.29.19-7.24-.08-11.2-.04-.57.11-.8.73-.84,2.64-.2,2.65-.22,2.62,2.43-.03,2.45.19,4.91-.12,7.36-.07.53.09.8.64.79.08,0,.17,0,.25.01q3.26.23,3.28-3.05c0-2.16.03-4.33-.05-6.49-.03-.84.2-1.06,1.01-1.06,2.15,0,2.12-.03,2.12,2.05,0,7.37,0,14.74.04,22.1,0,.95-.09,1.47-1.25,1.42-1.88-.09-1.88-.02-1.88-1.42,0-3.08-.02-6.16.03-9.24.02-.91-.25-1.31-1.19-1.24-.95.07-2.1-.35-2.8.22-.72.6,0,1.71-.04,2.6-.14,2.69.12,5.37-.14,8.07-.09.92-.33.99-1.04.98-2.5-.04-2.14.24-2.13-2.1,0-3.58,0-7.16,0-11.4Z"/><path class="cls-3" d="m53.49,301.51c-.92,0-1.83.05-2.75-.01-1.14-.08-1.87-.7-1.97-1.87-.1-1.11-.3-2.25.61-3.18.32-.33.31-.68.06-1.08-.73-1.18-.67-2.35.11-3.49.3-.43.32-.84-.08-1.22-.59-.57-.68-1.33-.68-2.07-.03-3.12-.04-6.24-.02-9.36.01-1.47.97-2.5,2.62-2.62,1.72-.13,3.51-.41,5.07.73.52.38.91.19,1.28-.26.2-.26.47-.58.82-.47.49.16.23.64.24.98.03.77.2,1.59-.81,1.98-.42.16-.21.66-.21,1.02.02,2.41.07,4.83.07,7.24,0,2.75-.6,3.33-3.31,3.75-.86.13-1.71.23-2.58.2-.85-.03-1.06.56-1.14,1.18-.08.65.26,1.11.99,1.11,1.16,0,2.33,0,3.49.02,2.62.05,3.51.96,3.49,3.56,0,.37.01.75.02,1.12.01,1.6-.95,2.66-2.58,2.75-.91.05-1.83,0-2.75,0,0,0,0,0,0,0Zm1.54-17.31h0c0-1.24-.04-2.49.01-3.73.04-1.03-.46-1.46-1.41-1.45-.92.01-2.1-.2-2.17,1.2-.12,2.57-.18,5.14-.14,7.71.02,1.11.74,1.39,2.34,1.34,1.02-.03,1.4-.47,1.36-1.46-.04-1.2-.01-2.41-.01-3.61Zm-1.75,15.78c.62,0,1.17.07,1.69-.01.96-.15,1.54-.69,1.55-1.74.02-1.01-.56-1.42-1.47-1.47-.95-.06-1.91-.09-2.86-.07-1.28.04-1.9,1.22-1.39,2.4.55,1.29,1.64.78,2.47.89Z"/><path class="cls-3" d="m34.81,288.1c0,2.54.01,5.07-.01,7.61,0,.44.31,1.15-.39,1.25-.74.11-1.71.34-2.11-.57-.45-1.02-.84-.59-1.32-.1-1.12,1.12-2.45,1.25-3.86.74-1.47-.53-1.92-1.71-1.82-3.17.13-1.85-.3-3.72.24-5.56.4-1.34,1.28-2.2,2.52-2.75.34-.15.69-.28,1.03-.43,3.36-1.46,2.64-1.52,2.66-4.76,0-1.07-.9-1.15-1.74-1.12-.79.03-1.67-.05-1.69,1.14-.01.75-.04,1.5-.01,2.24.06,1.59-1.32.67-1.95,1.05-.44.26-.69-.49-.68-1.02.02-1.12.02-2.25.08-3.37.08-1.56.76-2.43,2.28-2.66,1.39-.22,2.83-.23,4.22.02,1.7.31,2.46,1.33,2.5,3.34.05,2.7.01,5.41.01,8.11h.04Zm-3.01,1.88h.06c0-.92,0-1.83,0-2.75,0-.56-.15-.91-.8-.58-1.96.99-3.33,2.3-2.83,4.76.1.48.02,1,.02,1.49,0,.88.28,1.45,1.31,1.34.95-.1,2.15.28,2.23-1.27.05-1,0-2,0-2.99Z"/><path class="cls-3" d="m124.81,287.59c.14,2.64-.23,5.6.18,8.54.05.33.09.77-.33.81-.72.07-1.66.41-2.11-.26-.68-1.03-.97-.77-1.77-.08-1.09.94-2.51.91-3.85.33-1.21-.53-1.49-1.58-1.45-2.78.06-1.87-.15-3.75.14-5.6.24-1.53,1.15-2.55,2.62-3.07.38-.14.75-.31,1.13-.46,2.18-.85,3.15-2.81,2.39-5.03-.25-.72-1.04-.71-1.65-.71-.6,0-1.35-.12-1.62.73-.23.73-.21,1.48-.16,2.23.04.76.11,1.44-1.03,1.35-.93-.08-2.02.22-1.8-1.38.17-1.22.12-2.47.36-3.68.17-.88.76-1.56,1.75-1.78,1.57-.34,3.15-.31,4.7-.09,1.65.23,2.46,1.21,2.49,2.9.05,2.58.01,5.16.01,8.04Zm-2.83,2.34c0-.84.01-1.75,0-2.67,0-.31.04-.72-.47-.71-1,0-3.12,2.07-3.18,3.15-.05,1.08-.04,2.16,0,3.24.03.67.07,1.43,1.07,1.29.92-.12,2.18.52,2.46-1.12.18-1.04.03-2.07.1-3.19Z"/><path class="cls-3" d="m93.03,287.06c0-2.29-.03-4.58,0-6.87.04-2.72,1.04-3.67,3.72-3.67.71,0,1.42,0,2.12.02,2.17.05,3.25,1.02,3.33,3.17.08,2.33.04,4.66.05,6.99,0,.81-.51,1.05-1.23,1.05-1.42,0-2.83.03-4.25,0-.57-.01-.84.11-.82.74.03,1.5.02,3,0,4.5-.01.96.42,1.28,1.38,1.27,2.26-.04,2.26,0,2.19-2.28,0-.25.02-.51-.03-.75-.26-1.38.7-1.18,1.53-1.25.97-.09,1.3.38,1.21,1.25-.12,1.16.08,2.32-.17,3.48-.31,1.46-1,2.18-2.48,2.33-1.29.13-2.58.15-3.86,0-1.65-.18-2.68-1.34-2.68-2.99,0-2.33,0-4.66,0-6.99h0Zm6.49-4.53h0c0-.67,0-1.33,0-2,0-1.19-.87-1.28-1.73-1.3-.84-.02-1.75-.06-1.78,1.19-.03,1.29-.08,2.58-.13,3.87-.03.62.21.87.86.93,2.77.24,2.77.26,2.78-2.44,0-.08,0-.17,0-.25Z"/><path class="cls-3" d="m60.09,291.86c0-.37,0-.75,0-1.12,0-3.34.72-4.39,3.84-5.61,2.48-.97,3.19-2.32,2.61-4.99-.18-.81-.82-.87-1.45-.88-.71,0-1.55-.25-1.86.78-.25.82-.25,1.66-.14,2.48.2,1.39-1.01,1.04-1.57,1.16-.48.1-1.32-.08-1.25-1.1.07-1.15-.04-2.3.23-3.46.39-1.68,1.16-2.46,2.88-2.57,1.08-.07,2.17-.06,3.25.02,1.91.14,2.55,1.07,2.69,3,.28,3.93.16,7.86.15,11.79,0,1.43,0,2.85.11,4.27.04.51.18,1.24-.56,1.31-.66.06-1.54.51-1.97-.47-.38-.86-.69-.69-1.28-.13-1.03,1-2.4,1.15-3.7.79-1.31-.36-1.84-1.5-1.94-2.78-.07-.83-.01-1.66-.01-2.5,0,0-.02,0-.02,0Zm6.66-1.96h0c0-.87-.03-1.74,0-2.61.03-.78-.2-.74-.86-.5-2.15.79-3.28,2.14-2.87,4.53.07.4,0,.83,0,1.24.02.83-.13,1.7,1.19,1.7,1.87,0,2.46-.34,2.53-1.75.04-.87,0-1.74,0-2.61Z"/><path class="cls-3" d="m46.3,287.88c.15,2.44-.25,5.4.18,8.34.08.54-.3.71-.6.75-.76.11-1.75.35-2.06-.6-.29-.91-.57-.64-.95-.21-.69.77-1.63.96-2.56,1.09-1.85.26-3.25-.97-3.28-2.84-.03-1.54.04-3.08-.01-4.62-.08-2.17,1.01-3.52,2.9-4.34.42-.18.86-.3,1.28-.48,2.11-.91,2.85-2.51,2.22-4.72-.33-1.17-1.27-.99-2.13-1-1,0-1.38.65-1.48,1.5-.07.62-.07,1.25,0,1.87.1.85-.35,1.1-1.05,1.15-.76.05-1.63.11-1.72-.91-.15-1.62.04-3.24.6-4.76.45-1.21,1.62-1.48,2.78-1.55,1-.06,2-.04,3,.02,1.91.12,2.85,1.11,2.87,3.06.03,2.58,0,5.16,0,8.26Zm-2.81-1.25c-3.49,1.24-3.51,1.28-3.56,4.77,0,.54-.06,1.08-.03,1.61.06,1.21.71,1.71,1.89,1.47,1.13-.22,1.7-.92,1.7-2.06,0-1.9,0-3.8,0-5.79Z"/><path class="cls-3" d="m107.6,284.26c0,3.87-.04,7.74.03,11.6.02,1.16-.58,1.15-1.4,1.14-.81-.01-1.56.13-1.51-1.16.09-2.66.04-5.32.04-7.98,0-5.16-.01-10.32-.06-15.48,0-.74.21-.98.9-.91.33.03.67.04,1,0,.84-.11,1.04.24,1.03,1.06-.04,3.91-.02,7.82-.02,11.73Z"/><path class="cls-3" d="m136.69,260.14H.25c0-.1,0-.21,0-.31h136.44c0,.1,0,.21,0,.31Z"/><path class="cls-3" d="m113.11,286.9c0,3-.04,5.99.02,8.99.02,1.04-.44,1.18-1.28,1.13-.8-.05-1.67.24-1.65-1.15.06-6.03.06-12.06.01-18.1,0-1.13.61-1.07,1.34-1.03.72.04,1.6-.32,1.56,1.05-.08,3.03-.02,6.07-.02,9.11h.01Z"/><path class="cls-3" d="m74.77,288.04c-.83,0-1.65-.01-2.48,0-.63.01-.77-.47-.77-.89,0-.42.11-.9.74-.93,1.64-.08,3.27.16,4.92-.14.41-.07.64.53.64,1.01,0,.54-.12.99-.81.98-.74-.01-1.49,0-2.23,0,0,0,0-.02,0-.03Z"/><path class="cls-3" d="m111.61,271.46c1.01-.2,1.57.08,1.46,1.26-.08.82.15,1.68-1.21,1.61-1.61-.09-1.53-.02-1.65-1.69-.08-1.17.46-1.33,1.39-1.18Z"/><path class="cls-2" d="m20.72,125.28c0-12.58,0-25.16,0-37.74,0-.62-.06-1.24-.12-1.86-.11-1.24.14-1.57,1.44-1.58,2.25-.02,4.5,0,6.75,0,3.08,0,6.17.05,9.25-.05,1.26-.04,1.53.41,1.53,1.58-.03,23.54-.02,47.07-.02,70.61,0,.79-.04,1.58.15,2.36.42,1.74,1.53,2.67,3.33,2.65.82-.01,1.65.14,2.47-.15,1.68-.59,2.37-1.79,2.38-3.52,0-1.37.13-2.75.13-4.12,0-21.95,0-43.91,0-65.86,0-.79,0-1.58-.07-2.37-.07-.88.32-1.17,1.17-1.16,5.12.02,10.25.02,15.37-.03.77,0,1.15.23,1.21.98.03.37.09.74.09,1.11,0,24.37.01,48.74-.02,73.11,0,3.97-.2,8-1.56,11.73-1.11,3.02-3.38,5.25-6.54,6.43-2.71,1.01-5.53,1.28-8.37,1.34-4.12.09-8.25,0-12.37.03-2.51.01-5.01-.29-7.34-1.14-2.93-1.06-5.38-2.78-6.73-5.83-1.2-2.7-1.93-5.54-1.96-8.41-.13-12.7-.05-25.41-.05-38.11-.03,0-.05,0-.08,0Z"/><path class="cls-2" d="m72.24,131.25c0-15.21,0-30.41,0-45.62,0-1.42.16-1.53,1.78-1.53,8.83,0,17.66,0,26.49,0,2.83,0,5.63.27,8.37,1.01,4.6,1.26,6.97,4.55,8.13,8.94.73,2.75.94,5.57.97,8.39.07,8.29.09,16.58,0,24.87-.04,3.43-.29,6.86-1.38,10.17-1.39,4.22-4.28,6.65-8.5,7.8-3.1.84-6.23.81-9.38.82-2.17,0-4.33,0-6.5-.05-.91-.02-1.25.32-1.24,1.25.04,9.71.05,19.41.07,29.12,0,1.77,0,1.78-1.75,1.78-5.21,0-10.41-.02-15.62,0-1.07,0-1.44-.39-1.43-1.48.03-15.16.02-30.33.02-45.49h0Zm18.76-16.18s-.02,0-.02,0c0,4,.01,8,0,11.99,0,.77.13,1.32,1.06,1.3,1.46-.03,2.92,0,4.37-.08,1.49-.08,2.39-.93,2.57-2.4.14-1.11.26-2.23.25-3.34-.04-5.94.19-11.89-.19-17.83-.1-1.61-.81-2.43-2.38-2.72-1.36-.25-2.75-.05-4.11-.2-1.26-.14-1.57.36-1.56,1.53.05,3.91.02,7.83.02,11.74Z"/><path class="cls-1" d="m91.01,115.07c0-3.91.03-7.83-.02-11.74-.02-1.17.3-1.68,1.56-1.53,1.36.16,2.75-.04,4.11.2,1.57.28,2.28,1.1,2.38,2.72.38,5.94.15,11.89.19,17.83,0,1.11-.11,2.23-.25,3.34-.18,1.47-1.08,2.32-2.57,2.4-1.45.08-2.91.04-4.37.08-.93.02-1.07-.53-1.06-1.3.02-4,0-8,0-11.99,0,0,.02,0,.02,0Z"/></svg>